HIERARCHY
ROOT Hips
{
	OFFSET 0.000000 0.000000 0.000000
	CHANNELS 6 Xposition Yposition Zposition Xrotation Yrotation Zrotation
	JOINT LeftUpLeg_virtual
	{
		OFFSET 0.000000 0.000000 0.000000
		CHANNELS 3 Xrotation Yrotation Zrotation
		JOINT LeftUpLeg
		{
			OFFSET 15.427100 -6.655098 0.678600
			CHANNELS 3 Xrotation Yrotation Zrotation
			JOINT LeftLeg
			{
				OFFSET 4.081073 -39.591068 13.024000
				CHANNELS 3 Xrotation Yrotation Zrotation
				JOINT LeftFoot
				{
					OFFSET -4.081074 -37.707932 -15.979700
					CHANNELS 3 Xrotation Yrotation Zrotation
					JOINT LeftToeBase
					{
						OFFSET 5.346399 -15.068900 20.645000
						CHANNELS 3 Xrotation Yrotation Zrotation
						JOINT LeftToe_End
						{
							OFFSET 2.754700 0.931300 11.300900
							CHANNELS 3 Xrotation Yrotation Zrotation
							End Site
							{
								OFFSET 0 0 0
							}
						}
					}
				}
			}
		}
	}
	JOINT RightUpLeg_virtual
	{
		OFFSET 0.000000 0.000000 0.000000
		CHANNELS 3 Xrotation Yrotation Zrotation
		JOINT RightUpLeg
		{
			OFFSET -15.569500 -6.655098 0.678600
			CHANNELS 3 Xrotation Yrotation Zrotation
			JOINT RightLeg
			{
				OFFSET -4.081825 -39.591045 13.023800
				CHANNELS 3 Xrotation Yrotation Zrotation
				JOINT RightFoot
				{
					OFFSET 4.081824 -37.707954 -15.979600
					CHANNELS 3 Xrotation Yrotation Zrotation
					JOINT RightToeBase
					{
						OFFSET -5.346400 -15.068900 20.645000
						CHANNELS 3 Xrotation Yrotation Zrotation
						JOINT RightToe_End
						{
							OFFSET -2.754700 0.931300 11.300900
							CHANNELS 3 Xrotation Yrotation Zrotation
							End Site
							{
								OFFSET 0 0 0
							}
						}
					}
				}
			}
		}
	}
	JOINT Spine_virtual
	{
		OFFSET 0.000000 0.000000 0.000000
		CHANNELS 3 Xrotation Yrotation Zrotation
		JOINT Spine
		{
			OFFSET -0.279200 12.230698 -2.892100
			CHANNELS 3 Xrotation Yrotation Zrotation
			JOINT Spine1
			{
				OFFSET -0.232667 10.192268 -1.242267
				CHANNELS 3 Xrotation Yrotation Zrotation
				JOINT Spine1_split
				{
					OFFSET -0.232667 10.192268 -1.242267
					CHANNELS 3 Xrotation Yrotation Zrotation
					JOINT Spine2
					{
						OFFSET -0.232667 10.192268 -1.242267
						CHANNELS 3 Xrotation Yrotation Zrotation
						JOINT Neck_virtual
						{
							OFFSET 0.000000 0.000000 0.000000
							CHANNELS 3 Xrotation Yrotation Zrotation
							JOINT Neck
							{
								OFFSET -0.418800 17.814194 8.416900
								CHANNELS 3 Xrotation Yrotation Zrotation
								JOINT Head
								{
									OFFSET 0.000000 7.031097 3.806800
									CHANNELS 3 Xrotation Yrotation Zrotation
									JOINT HeadTop_End
									{
										OFFSET 0.000000 24.646606 12.978600
										CHANNELS 3 Xrotation Yrotation Zrotation
										End Site
										{
											OFFSET 0 0 0
										}
									}
								}
							}
						}
						JOINT LeftShoulder_virtual
						{
							OFFSET 0.000000 0.000000 0.000000
							CHANNELS 3 Xrotation Yrotation Zrotation
							JOINT LeftShoulder
							{
								OFFSET 8.476499 7.247704 -3.868750
								CHANNELS 3 Xrotation Yrotation Zrotation
								JOINT LeftShoulder_split
								{
									OFFSET 8.476499 7.247704 -3.868750
									CHANNELS 3 Xrotation Yrotation Zrotation
									JOINT LeftArm
									{
										OFFSET 9.308998 -2.777710 0.208600
										CHANNELS 3 Xrotation Yrotation Zrotation
										JOINT LeftForeArm
										{
											OFFSET 29.972298 0.000000 0.000000
											CHANNELS 3 Xrotation Yrotation Zrotation
											JOINT LeftHand
											{
												OFFSET 26.026505 0.000000 0.000000
												CHANNELS 3 Xrotation Yrotation Zrotation
												End Site
												{
													OFFSET 0 0 0
												}
											}
										}
									}
								}
							}
						}
						JOINT RightShoulder_virtual
						{
							OFFSET 0.000000 0.000000 0.000000
							CHANNELS 3 Xrotation Yrotation Zrotation
							JOINT RightShoulder
							{
								OFFSET -7.570500 7.247704 -3.868750
								CHANNELS 3 Xrotation Yrotation Zrotation
								JOINT RightShoulder_split
								{
									OFFSET -7.570500 7.247704 -3.868750
									CHANNELS 3 Xrotation Yrotation Zrotation
									JOINT RightArm
									{
										OFFSET -9.308998 -2.777710 0.208500
										CHANNELS 3 Xrotation Yrotation Zrotation
										JOINT RightForeArm
										{
											OFFSET -29.972300 0.000000 0.000000
											CHANNELS 3 Xrotation Yrotation Zrotation
											JOINT RightHand
											{
												OFFSET -26.026505 0.000000 0.000000
												CHANNELS 3 Xrotation Yrotation Zrotation
												End Site
												{
													OFFSET 0 0 0
												}
											}
										}
									}
								}
							}
						}
					}
				}
			}
		}
	}
}
MOTION
Frames: 10
Frame Time: 0.03333333
32.351280 32.368847 396.077789 0.000000 0.000000 0.000000 47.744723 -52.301323 74.134580 -55.289531 -1.545655 21.404435 42.981400 -14.772396 6.703086 -0.556104 5.882355 -18.003031 3.052221 -3.238113 5.528455 0.000000 0.000000 0.000000 48.416639 -55.528789 76.838966 -84.548337 -4.734222 -8.993649 116.759953 11.083006 0.357013 20.487509 4.763686 31.003786 6.649718 -8.748946 -42.088742 0.000000 0.000000 0.000000 64.916433 -50.038567 84.892073 24.788928 -4.122952 0.527586 10.003944 -11.504092 -4.100051 0.474741 0.440255 0.035393 0.000000 0.000000 0.000000 10.125525 -11.114383 -2.985492 -0.931979 12.434907 12.700435 58.543232 75.035201 -27.104878 0.000000 0.000000 0.000000 11.634435 -11.505418 -2.726553 0.146240 -4.147370 -19.128563 0.955799 -3.012503 -2.273743 6.860502 -17.493824 -47.573886 28.781314 -4.473155 -17.309533 0.000000 0.000000 0.000000 14.057183 -13.831936 -8.039753 15.172862 27.294945 -3.800706 -17.963729 -4.502284 9.924052 -42.137394 -0.737909 -8.004568 -21.134576 26.539334 16.486743 0.000000 0.000000 0.000000 
31.117903 31.715561 408.878082 0.000000 0.000000 0.000000 46.320249 -50.341042 70.306054 -62.680421 -4.102764 24.843000 46.543050 -15.618937 7.709802 4.249237 1.081083 -27.289801 -0.393216 -3.913096 8.237122 0.000000 0.000000 0.000000 43.683755 -53.863825 70.543608 -86.907518 -1.176764 -15.077094 120.133288 16.302427 -6.451405 23.086410 6.677538 35.828328 0.964029 -6.879451 -43.096571 0.000000 0.000000 0.000000 59.862858 -50.504174 78.570364 24.708886 -2.439464 -0.372163 10.252391 -9.452886 -3.225284 0.209049 0.427812 0.032668 0.000000 0.000000 0.000000 8.997995 -9.286117 -2.471750 1.804048 10.123687 10.979538 40.612684 63.882520 -12.651374 0.000000 0.000000 0.000000 10.649990 -9.666873 -2.633148 0.035649 -6.901002 -18.713649 1.437415 -1.758431 -1.679647 9.564507 -16.455498 -47.283012 28.319078 -4.560369 -18.598443 0.000000 0.000000 0.000000 13.282194 -11.631266 -7.103412 13.929683 26.955758 -2.801808 -16.328173 -1.471253 8.583700 -43.728869 -5.153132 -5.987703 -21.938800 26.302669 14.426755 0.000000 0.000000 0.000000 
29.878300 31.493309 421.222687 0.000000 0.000000 0.000000 44.344457 -48.335022 65.646874 -71.633508 -4.010083 27.636356 49.940369 -13.094179 6.574586 11.148878 -1.450833 -29.687223 -1.739354 -4.395761 9.820414 0.000000 0.000000 0.000000 40.651206 -52.223770 64.853281 -84.955949 1.343657 -20.560951 122.295411 19.200959 -11.818634 26.699146 5.711198 39.871069 -4.499153 -4.716979 -43.025185 0.000000 0.000000 0.000000 54.010998 -50.554403 71.326914 24.246219 -0.781726 -1.762052 9.861292 -7.352785 -2.671212 0.056879 0.348977 -0.058373 0.000000 0.000000 0.000000 7.175164 -7.450570 -2.367766 3.298910 7.800698 9.762049 32.176297 49.693554 -7.520306 0.000000 0.000000 0.000000 9.030495 -7.928315 -3.120708 0.040393 -8.425612 -17.620483 1.558306 -1.831692 -1.319778 13.808091 -14.919310 -43.518492 27.582213 -3.779600 -19.446867 0.000000 0.000000 0.000000 12.030529 -9.113155 -6.176689 12.023749 24.956876 -1.322076 -14.867819 1.011882 6.910944 -42.944961 -13.087098 0.157060 -23.276136 29.545667 13.361274 0.000000 0.000000 0.000000 
28.482689 31.472908 433.001099 0.000000 0.000000 0.000000 41.503750 -46.995578 59.764148 -82.409340 -2.245944 30.459389 54.550279 -8.536942 3.902271 20.734713 -1.787677 -27.536761 -0.607330 -4.387891 9.925785 0.000000 0.000000 0.000000 37.746699 -51.097308 58.489662 -77.115274 0.267017 -25.392818 122.542992 19.841390 -15.055535 28.079082 0.543228 41.405430 -7.715206 -2.750347 -42.294662 0.000000 0.000000 0.000000 47.767894 -50.494629 63.543722 23.353197 0.776192 -3.470036 9.120448 -5.547570 -2.409882 -0.066511 0.321719 -0.096988 0.000000 0.000000 0.000000 5.331364 -5.792995 -2.599065 3.489585 5.581271 8.966859 26.873099 35.271278 -5.870294 0.000000 0.000000 0.000000 7.149887 -6.472911 -3.965821 0.190741 -8.327857 -15.877910 1.655683 -2.347416 -1.514637 18.459240 -11.448533 -36.353153 26.392399 -3.392668 -19.681656 0.000000 0.000000 0.000000 10.668074 -6.716132 -5.328064 9.941088 21.581974 0.242831 -13.499869 2.297273 5.955676 -36.920533 -23.296834 11.585911 -25.617977 36.706591 14.144472 0.000000 0.000000 0.000000 
27.084927 31.743107 443.941284 0.000000 0.000000 0.000000 38.699896 -47.150841 53.667245 -94.384458 -0.312252 33.508310 61.404623 -4.016334 0.310350 32.036381 -1.247894 -24.096617 0.532218 -4.106636 8.803832 0.000000 0.000000 0.000000 35.234033 -50.673013 51.837174 -64.108060 -6.039451 -28.906037 119.938026 19.310024 -16.532715 26.344656 -6.599332 42.946368 -11.934764 0.504667 -42.169769 0.000000 0.000000 0.000000 41.511564 -50.327310 55.220959 22.011963 2.195306 -5.196407 8.383943 -4.213176 -2.397833 -0.063292 0.361860 -0.116558 0.000000 0.000000 0.000000 4.116260 -4.489838 -2.990704 2.407567 3.640017 8.528081 21.950112 23.225239 -6.112721 0.000000 0.000000 0.000000 5.279262 -5.330064 -4.869188 0.407465 -6.727987 -13.701553 2.158063 -2.827232 -2.358255 21.615920 -5.185900 -27.029377 24.293755 -4.505848 -19.316067 0.000000 0.000000 0.000000 9.424251 -4.850460 -4.625507 8.075253 17.732614 1.501433 -12.353025 2.193405 5.497624 -23.955338 -31.846823 28.894436 -29.859763 46.627031 17.774941 0.000000 0.000000 0.000000 
25.889307 32.188988 454.200256 0.000000 0.000000 0.000000 35.408107 -48.809522 47.090821 -105.110812 1.932991 35.997890 69.351931 -0.356002 -3.344910 40.990124 0.378317 -19.877061 -1.626414 -3.958480 7.409544 0.000000 0.000000 0.000000 32.874756 -51.068993 45.247865 -49.414930 -16.599979 -29.740054 114.589735 19.088710 -17.302664 23.922249 -10.597716 47.887699 -18.984694 5.880089 -43.015667 0.000000 0.000000 0.000000 35.348838 -49.958247 46.494915 20.392378 3.382639 -6.604210 8.017644 -3.452658 -2.567125 0.012675 0.300193 -0.109185 0.000000 0.000000 0.000000 3.799855 -3.644481 -3.436870 0.188548 2.060030 8.450931 15.962408 13.709621 -7.538692 0.000000 0.000000 0.000000 3.731204 -4.647729 -5.649158 0.617394 -4.315808 -11.348388 2.213643 -2.824596 -3.242846 21.019707 2.873476 -17.078944 21.150905 -6.803475 -18.448836 0.000000 0.000000 0.000000 8.383730 -3.715065 -4.130595 6.587770 14.438096 2.184471 -11.925730 1.391580 5.588092 -6.732844 -34.110497 48.620879 -37.652675 57.175695 25.910152 0.000000 0.000000 0.000000 
24.896729 33.325920 464.144653 0.000000 0.000000 0.000000 32.432860 -51.419908 40.707460 -112.780985 4.990105 36.854167 77.361796 2.760722 -6.037133 42.617078 3.844476 -14.079462 -6.445437 -3.793203 5.842748 0.000000 0.000000 0.000000 30.469248 -51.801469 38.899444 -35.519579 -27.908553 -26.870073 105.506875 20.823201 -17.953509 20.835357 -9.500309 55.682100 -26.242067 12.105351 -43.878371 0.000000 0.000000 0.000000 29.924626 -48.837055 37.660536 18.608552 4.176092 -7.594749 8.223454 -3.346450 -2.844744 0.030878 0.216721 -0.057509 0.000000 0.000000 0.000000 4.375603 -3.272123 -3.817443 -2.813838 0.993790 8.872071 8.659590 6.533856 -9.849426 0.000000 0.000000 0.000000 2.733834 -4.423447 -6.199275 0.745532 -2.351555 -9.272462 2.820297 -1.858902 -3.106723 16.101397 8.969404 -7.660413 17.341999 -9.154318 -17.241380 0.000000 0.000000 0.000000 7.717080 -3.314651 -3.922204 5.406715 12.269199 2.262680 -11.770830 0.474355 5.753234 6.728994 -29.740433 62.650190 -51.792102 65.657461 41.062739 0.000000 0.000000 0.000000 
23.699377 35.385178 473.742157 0.000000 0.000000 0.000000 29.266456 -53.356478 33.966551 -117.158453 8.794554 36.334803 85.464791 5.396361 -7.893003 35.384953 8.052925 -6.075549 -8.173302 -3.037480 3.026573 0.000000 0.000000 0.000000 28.447149 -51.055572 32.671131 -23.321823 -36.012507 -20.994535 91.574949 24.956675 -17.482223 16.438778 -6.122975 63.132040 -30.140949 16.616600 -44.156193 0.000000 0.000000 0.000000 26.220519 -47.086122 29.574449 16.697975 4.496154 -7.971422 8.993888 -3.697384 -3.195771 0.105883 0.074323 0.004292 0.000000 0.000000 0.000000 5.425729 -3.284042 -4.139095 -5.990282 0.619070 9.818178 0.870059 0.776574 -12.772287 0.000000 0.000000 0.000000 2.432050 -4.543926 -6.612595 0.837659 -2.008206 -7.717345 2.757418 -0.825105 -2.348833 9.327078 9.743691 0.144886 13.435050 -10.255312 -15.647600 0.000000 0.000000 0.000000 7.380188 -3.437222 -4.000338 4.315711 11.482247 2.056519 -12.143844 0.151200 5.252022 13.259588 -22.089740 68.194316 -71.554926 70.010375 62.316597 0.000000 0.000000 0.000000 
22.160151 38.323246 483.367279 0.000000 0.000000 0.000000 26.259854 -53.153628 26.994193 -118.194279 13.212838 34.815421 92.845978 7.331498 -8.703659 21.514039 10.185111 3.100808 -4.219592 -1.934303 -0.933908 0.000000 0.000000 0.000000 26.457103 -48.459127 26.217266 -15.064486 -39.815553 -14.771790 76.299067 28.609555 -13.959292 13.615983 -4.479490 64.308273 -26.844144 16.747316 -43.350869 0.000000 0.000000 0.000000 24.517241 -44.587202 22.738796 14.517516 4.396562 -7.597531 10.061143 -4.297242 -3.640329 0.087338 -0.049606 0.025618 0.000000 0.000000 0.000000 6.413335 -3.499318 -4.493590 -8.536476 0.856152 11.018967 -6.176797 -4.788981 -15.870689 0.000000 0.000000 0.000000 2.741926 -4.886287 -7.070902 1.002597 -3.749220 -6.692347 1.473164 0.084255 -1.319476 3.254027 3.707507 4.070485 10.153329 -9.674320 -13.512457 0.000000 0.000000 0.000000 7.402642 -3.770295 -4.332053 3.180816 11.650912 1.986644 -12.466174 -0.289091 4.254503 14.694807 -12.912731 67.593997 -89.775972 70.659202 82.402394 0.000000 0.000000 0.000000 
20.052006 42.161606 492.788544 0.000000 0.000000 0.000000 24.653537 -50.498464 21.251118 -114.689203 18.395701 31.402939 98.247032 8.660099 -7.980495 6.038697 8.873061 10.673822 0.195144 -1.230516 -3.883271 0.000000 0.000000 0.000000 24.971226 -43.979407 20.346853 -13.576181 -39.822554 -11.774288 65.300857 28.757552 -8.117163 15.793621 -5.441580 57.659631 -17.172453 12.179615 -39.800564 0.000000 0.000000 0.000000 24.290675 -41.274710 17.353793 12.023255 3.914342 -6.760134 11.102536 -4.935820 -4.176102 -0.044014 0.050473 0.132304 0.000000 0.000000 0.000000 7.139027 -3.788729 -4.877126 -10.046562 1.637996 12.216335 -10.853004 -10.262552 -18.715587 0.000000 0.000000 0.000000 3.390490 -5.198860 -7.564135 1.244564 -7.191580 -5.870627 -0.306406 0.882377 -0.633273 -0.810562 -9.716377 2.862079 7.830154 -9.440548 -10.992062 0.000000 0.000000 0.000000 7.732914 -4.108963 -4.815805 1.961657 11.939428 2.112051 -12.923021 -1.482213 2.689133 13.373641 -3.120855 63.823842 -100.061663 69.606711 94.656238 0.000000 0.000000 0.000000 
